<svg xmlns="http://www.w3.org/2000/svg" width="48" height="48" viewBox="0 0 48 48"><path fill="#FFCC80" d="M33,18H21.903H21v-4c0-1.106-1.097-2.989-3.097-2.989S15,13,15,14s0,7,0,7s-3.61,2.301-5,4c-1.235,1.392-1.391,3.141,0,5l2.692,3.846C15.626,36.781,18.586,39,22.756,39h6.879c5.1,0,9.365-4.056,9.365-9.154c0,0,0-3.83,0-9.846L33,18z"/><path fill="#FFCC80" d="M21 19.086C21 20.689 22.35 22 24 22c1.651 0 3-1.311 3-2.914v-7.174C27 10.31 25.651 9 24 9c-1.65 0-3 1.31-3 2.912V19.086zM27 21.086C27 22.689 28.35 24 30 24c1.651 0 3-1.311 3-2.914v-7.174C33 12.31 31.651 11 30 11c-1.65 0-3 1.31-3 2.912V21.086zM33 24.086C33 25.689 34.35 27 36 27c1.651 0 3-1.311 3-2.914v-7.174C39 15.31 37.651 14 36 14c-1.65 0-3 1.31-3 2.912V24.086z"/><g><path fill="#F2A25A" d="M15 30v-9c0 0-1.512.965-2.955 2.105L15 30zM21 12v6c0 .552.447 1 1 1s1-.448 1-1L21 12zM27 14v5c0 .552.447 1 1 1s1-.448 1-1L27 14zM33 16v4c0 .552.447 1 1 1s1-.448 1-1L33 16z"/></g></svg>